<svg width="22" height="19" viewBox="0 0 22 19" fill="none" xmlns="http://www.w3.org/2000/svg">
<path d="M17.75 13.75H15.225C15.0759 13.7501 14.9288 13.7839 14.7946 13.8488C14.6604 13.9138 14.5426 14.0082 14.45 14.125L11.525 17.775C11.4313 17.8922 11.3125 17.9867 11.1773 18.0517C11.0421 18.1167 10.894 18.1505 10.744 18.1505C10.594 18.1505 10.4459 18.1167 10.3107 18.0517C10.1755 17.9867 10.0567 17.8922 9.963 17.775L7.038 14.125C6.94529 14.008 6.82733 13.9136 6.69295 13.8486C6.55857 13.7837 6.41125 13.75 6.262 13.75H3.75C2.088 13.75 0.75 12.412 0.75 10.75V3.75C0.75 2.088 2.088 0.75 3.75 0.75H17.75C19.413 0.75 20.75 2.088 20.75 3.75V10.75C20.75 12.412 19.413 13.75 17.75 13.75Z" stroke="black" stroke-width="1.5" stroke-miterlimit="10" stroke-linecap="round" stroke-linejoin="round"/>
<path d="M7.18001 8.034L7.55601 6.526C7.60601 6.324 7.89401 6.324 7.94401 6.526L8.32101 8.034C8.32984 8.06901 8.34799 8.10097 8.37351 8.1265C8.39904 8.15203 8.43101 8.17017 8.46601 8.179L9.97401 8.556C10.176 8.606 10.176 8.894 9.97401 8.944L8.46601 9.321C8.43101 9.32983 8.39904 9.34797 8.37351 9.3735C8.34799 9.39903 8.32984 9.43099 8.32101 9.466L7.94401 10.974C7.89401 11.176 7.60601 11.176 7.55601 10.974L7.17901 9.466C7.17018 9.43099 7.15204 9.39903 7.12651 9.3735C7.10098 9.34797 7.06902 9.32983 7.03401 9.321L5.52601 8.944C5.32401 8.894 5.32401 8.606 5.52601 8.556L7.03401 8.179C7.06902 8.17017 7.10098 8.15203 7.12651 8.1265C7.15204 8.10097 7.17018 8.06901 7.17901 8.034M13.85 5.35L14.25 3.75L14.65 5.35L16.25 5.75L14.65 6.15L14.25 7.75L13.85 6.15L12.25 5.75L13.85 5.35Z" stroke="black" stroke-width="1.5" stroke-miterlimit="10" stroke-linecap="round" stroke-linejoin="round"/>
</svg>
