<svg width="18" height="18" viewBox="0 0 18 18" fill="none" xmlns="http://www.w3.org/2000/svg">
<g clip-path="url(#clip0_93_17327)">
<path d="M8.35711 16.0714C9.37016 16.0714 10.3733 15.8719 11.3092 15.4842C12.2452 15.0965 13.0956 14.5283 13.8119 13.812C14.5283 13.0956 15.0965 12.2452 15.4842 11.3093C15.8719 10.3733 16.0714 9.37019 16.0714 8.35714C16.0714 7.34408 15.8719 6.34095 15.4842 5.40501C15.0965 4.46907 14.5283 3.61865 13.8119 2.90231C13.0956 2.18598 12.2452 1.61775 11.3092 1.23007C10.3733 0.842389 9.37016 0.642853 8.35711 0.642853C6.31115 0.642853 4.34899 1.45561 2.90228 2.90231C1.45557 4.34902 0.642822 6.31118 0.642822 8.35714C0.642822 10.4031 1.45557 12.3653 2.90228 13.812C4.34899 15.2587 6.31115 16.0714 8.35711 16.0714Z" fill="#D7E0FF"/>
<path d="M13.8085 13.8086L17.3571 17.3571M8.35711 16.0714C9.37016 16.0714 10.3733 15.8719 11.3092 15.4842C12.2452 15.0965 13.0956 14.5283 13.8119 13.812C14.5283 13.0956 15.0965 12.2452 15.4842 11.3093C15.8719 10.3733 16.0714 9.37019 16.0714 8.35714C16.0714 7.34408 15.8719 6.34095 15.4842 5.40501C15.0965 4.46907 14.5283 3.61865 13.8119 2.90231C13.0956 2.18598 12.2452 1.61775 11.3092 1.23007C10.3733 0.842389 9.37016 0.642853 8.35711 0.642853C6.31115 0.642853 4.34899 1.45561 2.90228 2.90231C1.45558 4.34902 0.642822 6.31118 0.642822 8.35714C0.642822 10.4031 1.45558 12.3653 2.90228 13.812C4.34899 15.2587 6.31115 16.0714 8.35711 16.0714Z" stroke="#4147D5" stroke-linecap="round" stroke-linejoin="round"/>
<path d="M4.61569 8.75956C4.1644 8.68113 4.1644 8.03313 4.61569 7.9547C5.41446 7.81499 6.15366 7.4409 6.73928 6.88C7.32491 6.3191 7.73052 5.59672 7.90454 4.80471L7.93154 4.67999C8.02926 4.23385 8.6644 4.23128 8.76597 4.67613L8.7994 4.82142C8.97876 5.6106 9.3876 6.32909 9.97444 6.88641C10.5613 7.44373 11.2999 7.81498 12.0973 7.95342C12.5511 8.03056 12.5511 8.68242 12.0973 8.76213C11.3 8.90048 10.5616 9.27154 9.97474 9.82862C9.38792 10.3857 8.97899 11.1039 8.7994 11.8928L8.76597 12.0381C8.6644 12.483 8.02926 12.4804 7.93154 12.0343L7.90454 11.9096C7.73052 11.1175 7.32491 10.3952 6.73928 9.83427C6.15366 9.27337 5.41446 8.89928 4.61569 8.75956Z" fill="white"/>
<path d="M4.61569 8.75956C4.1644 8.68113 4.1644 8.03313 4.61569 7.95471C5.41446 7.81499 6.15366 7.4409 6.73928 6.88C7.32491 6.3191 7.73052 5.59672 7.90454 4.80471L7.93154 4.67999C8.02926 4.23385 8.6644 4.23128 8.76597 4.67613L8.7994 4.82142C8.97876 5.6106 9.3876 6.32909 9.97444 6.88641C10.5613 7.44373 11.2999 7.81498 12.0973 7.95342C12.5511 8.03056 12.5511 8.68242 12.0973 8.76213C11.3 8.90048 10.5616 9.27154 9.97474 9.82862C9.38792 10.3857 8.97899 11.1039 8.7994 11.8928L8.76597 12.0381C8.6644 12.483 8.02926 12.4804 7.93154 12.0343L7.90454 11.9096C7.73052 11.1175 7.32491 10.3952 6.73928 9.83427C6.15366 9.27337 5.41446 8.89928 4.61569 8.75956Z" stroke="#4147D5" stroke-linecap="round" stroke-linejoin="round"/>
</g>
<defs>
<clipPath id="clip0_93_17327">
<rect width="18" height="18" fill="white"/>
</clipPath>
</defs>
</svg>
