<svg width="32" height="18" viewBox="0 0 32 18" fill="none" xmlns="http://www.w3.org/2000/svg">
<path d="M7 8H25C25.56 8 26 8.44 26 9C26 9.56 25.56 10 25 10H7C6.44 10 6 9.56 6 9C6 8.44 6.44 8 7 8Z" fill="black"/>
<path d="M12 1.00001C12.1312 0.998409 12.2612 1.02427 12.3817 1.07594C12.5023 1.12761 12.6107 1.20393 12.7 1.30001C13.1 1.70001 13.1 2.32001 12.7 2.72001L6.4 9.02001L12.7 15.32C13.1 15.72 13.1 16.34 12.7 16.74C12.3 17.14 11.68 17.14 11.28 16.74L4.28 9.74001C3.88 9.34001 3.88 8.72001 4.28 8.32001L11.28 1.32001C11.48 1.12001 11.74 1.02001 11.98 1.02001L12 1.00001Z" fill="black"/>
</svg>
