<svg width="17" height="15" viewBox="0 0 17 15" fill="none" xmlns="http://www.w3.org/2000/svg">
<path d="M12.8006 5.13707L7.80257 10.0091L2.80457 5.13707C2.71527 5.04984 2.5954 5.001 2.47057 5.001C2.34574 5.001 2.22586 5.04984 2.13657 5.13707C2.09333 5.17943 2.05898 5.23 2.03553 5.2858C2.01208 5.34161 2 5.40153 2 5.46207C2 5.5226 2.01208 5.58252 2.03553 5.63833C2.05898 5.69413 2.09333 5.7447 2.13657 5.78707L7.45357 10.9711C7.54694 11.0621 7.67217 11.113 7.80257 11.113C7.93296 11.113 8.05819 11.0621 8.15157 10.9711L13.4686 5.78807C13.5121 5.74567 13.5467 5.69498 13.5704 5.63899C13.594 5.583 13.6062 5.52284 13.6062 5.46207C13.6062 5.40129 13.594 5.34113 13.5704 5.28514C13.5467 5.22915 13.5121 5.17846 13.4686 5.13607C13.3793 5.04884 13.2594 5 13.1346 5C13.0097 5 12.8899 5.04884 12.8006 5.13607V5.13707Z" fill="black"/>
</svg>
