<svg width="24" height="24" viewBox="0 0 24 24" fill="none" xmlns="http://www.w3.org/2000/svg">
<path d="M6.36495 21.75H5.19995C4.93473 21.75 4.68038 21.6446 4.49284 21.4571C4.30531 21.2696 4.19995 21.0152 4.19995 20.75V3.25C4.19995 2.98478 4.30531 2.73043 4.49284 2.54289C4.68038 2.35536 4.93473 2.25 5.19995 2.25H6.36495M6.36495 21.75V2.25M6.36495 21.75H18.8C19.0652 21.75 19.3195 21.6446 19.5071 21.4571C19.6946 21.2696 19.8 21.0152 19.8 20.75V3.25C19.8 2.98478 19.6946 2.73043 19.5071 2.54289C19.3195 2.35536 19.0652 2.25 18.8 2.25H6.36495" stroke="black" stroke-linecap="round" stroke-linejoin="round"/>
<path d="M10.1335 5.828H16.0315V8.7985H10.1335V5.828Z" stroke="black" stroke-linecap="round" stroke-linejoin="round"/>
</svg>
