<svg width="21" height="21" viewBox="0 0 21 21" fill="none" xmlns="http://www.w3.org/2000/svg">
<path d="M10.5 2.625H4.375C3.91087 2.625 3.46575 2.80937 3.13756 3.13756C2.80937 3.46575 2.625 3.91087 2.625 4.375V16.625C2.625 17.0891 2.80937 17.5342 3.13756 17.8624C3.46575 18.1906 3.91087 18.375 4.375 18.375H16.625C17.0891 18.375 17.5342 18.1906 17.8624 17.8624C18.1906 17.5342 18.375 17.0891 18.375 16.625V10.5" stroke="black" stroke-width="2" stroke-linecap="round" stroke-linejoin="round"/>
<path d="M16.0781 2.29689C16.4262 1.94879 16.8983 1.75323 17.3906 1.75323C17.8829 1.75323 18.355 1.94879 18.7031 2.29689C19.0512 2.64499 19.2467 3.11711 19.2467 3.60939C19.2467 4.10167 19.0512 4.57379 18.7031 4.92189L10.8167 12.8091C10.6089 13.0167 10.3523 13.1687 10.0703 13.251L7.55646 13.986C7.48117 14.008 7.40136 14.0093 7.32538 13.9898C7.2494 13.9704 7.18006 13.9308 7.1246 13.8754C7.06914 13.8199 7.02961 13.7506 7.01015 13.6746C6.99068 13.5986 6.992 13.5188 7.01396 13.4435L7.74896 10.9296C7.83167 10.6479 7.98393 10.3916 8.19171 10.1841L16.0781 2.29689Z" stroke="black" stroke-width="2" stroke-linecap="round" stroke-linejoin="round"/>
</svg>
