<svg width="24" height="24" viewBox="0 0 24 24" fill="none" xmlns="http://www.w3.org/2000/svg">
<path d="M9.50106 19.501C9.50106 18.787 9.50106 18.431 9.46206 18.194C9.34006 17.431 9.31906 17.382 8.83206 16.782C8.68006 16.595 8.12006 16.094 7.00006 15.09C5.86794 14.0774 5.06995 12.745 4.71166 11.269C4.35336 9.79295 4.45167 8.24293 4.99356 6.82401C5.53545 5.40508 6.49539 4.18412 7.74636 3.32269C8.99733 2.46125 10.4804 1.99994 11.9993 1.99979C13.5181 1.99963 15.0013 2.46065 16.2524 3.32184C17.5035 4.18302 18.4637 5.40379 19.0059 6.82261C19.5481 8.24143 19.6467 9.79142 19.2887 11.2675C18.9307 12.7436 18.133 14.0762 17.0011 15.089C15.8801 16.093 15.3201 16.595 15.1691 16.781C14.6821 17.381 14.6611 17.43 14.5381 18.193C14.5001 18.43 14.5001 18.787 14.5001 19.5H9.50006C9.50006 20.435 9.50006 20.902 9.70106 21.25C9.83271 21.478 10.0221 21.6674 10.2501 21.799C10.5981 22 11.0651 22 12.0001 22C12.9351 22 13.4021 22 13.7511 21.8C13.9791 21.6684 14.1684 21.479 14.3001 21.251C14.5011 20.903 14.5011 20.436 14.5011 19.501" stroke="black" stroke-width="1.5"/>
<path d="M12.0001 17V15M12.0001 15C12.3511 15 12.696 14.9075 13 14.732C13.3041 14.5565 13.5565 14.304 13.7321 14M12.0001 15C11.649 15 11.3041 14.9075 11.0001 14.732C10.6961 14.5565 10.4436 14.304 10.2681 14" stroke="black" stroke-width="1.5" stroke-linecap="round"/>
</svg>
