<svg width="24" height="24" viewBox="0 0 24 24" fill="none" xmlns="http://www.w3.org/2000/svg">
<path d="M7.49169 20.28C7.07815 20.28 6.72615 20.129 6.43569 19.8269C6.14523 19.5248 6 19.159 6 18.7296V10.3104C6 9.8816 6.14523 9.51584 6.43569 9.21312C6.72615 8.91104 7.07815 8.76 7.49169 8.76H8.76923V6.84C8.76923 5.77056 9.12769 4.86336 9.84462 4.1184C10.5609 3.3728 11.4332 3 12.4615 3C13.4898 3 14.3625 3.3728 15.0794 4.1184C15.7963 4.864 16.1545 5.7712 16.1538 6.84V8.76H17.4323C17.8446 8.76 18.1963 8.91104 18.4874 9.21312C18.7778 9.5152 18.9231 9.88128 18.9231 10.3114V18.7296C18.9231 19.1584 18.7778 19.5242 18.4874 19.8269C18.1969 20.129 17.8452 20.28 17.4323 20.28H7.49169ZM7.49169 19.32H17.4323C17.5978 19.32 17.7338 19.2646 17.8403 19.1539C17.9468 19.0432 18 18.9018 18 18.7296V10.3104C18 10.1382 17.9468 9.9968 17.8403 9.88608C17.7338 9.77536 17.5978 9.72 17.4323 9.72H7.49077C7.32523 9.72 7.18923 9.77536 7.08277 9.88608C6.97631 9.9968 6.92308 10.1386 6.92308 10.3114V18.7296C6.92308 18.9018 6.97631 19.0432 7.08277 19.1539C7.18923 19.2646 7.32554 19.32 7.49169 19.32ZM12.4615 15.96C12.8511 15.96 13.1791 15.8211 13.4455 15.5434C13.7126 15.2662 13.8462 14.9251 13.8462 14.52C13.8462 14.1149 13.7126 13.7738 13.4455 13.4966C13.1785 13.2195 12.8505 13.0806 12.4615 13.08C12.0726 13.0794 11.7446 13.2182 11.4775 13.4966C11.2105 13.7738 11.0769 14.1149 11.0769 14.52C11.0769 14.9251 11.2105 15.2662 11.4775 15.5434C11.744 15.8211 12.072 15.96 12.4615 15.96ZM9.69231 8.76H15.2308V6.84C15.2308 6.04 14.9615 5.36 14.4231 4.8C13.8846 4.24 13.2308 3.96 12.4615 3.96C11.6923 3.96 11.0385 4.24 10.5 4.8C9.96154 5.36 9.69231 6.04 9.69231 6.84V8.76Z" fill="black"/>
</svg>
