<svg width="23" height="23" viewBox="0 0 23 23" fill="none" xmlns="http://www.w3.org/2000/svg">
<path d="M20.169 6.8461L16.1539 2.83099C16.0537 2.73048 15.9347 2.65073 15.8037 2.59631C15.6726 2.5419 15.5321 2.51389 15.3902 2.51389C15.2483 2.51389 15.1078 2.5419 14.9768 2.59631C14.8457 2.65073 14.7267 2.73048 14.6266 2.83099L3.54973 13.9105C3.34781 14.1127 3.23439 14.3867 3.23438 14.6724V18.6875C3.23438 18.9734 3.34796 19.2477 3.55015 19.4499C3.75234 19.652 4.02656 19.7656 4.3125 19.7656H19.4062C19.5016 19.7656 19.593 19.7278 19.6604 19.6604C19.7278 19.593 19.7656 19.5016 19.7656 19.4063C19.7656 19.3109 19.7278 19.2195 19.6604 19.1521C19.593 19.0847 19.5016 19.0469 19.4062 19.0469H9.49289L20.169 8.37075C20.3712 8.16857 20.4848 7.89435 20.4848 7.60843C20.4848 7.3225 20.3712 7.04829 20.169 6.8461ZM6.61789 16.8906L14.7344 8.77415L16.7424 10.7813L8.625 18.8977L6.61789 16.8906ZM6.10938 16.3821L4.10227 14.375L12.2188 6.25853L14.2268 8.26563L6.10938 16.3821ZM3.95312 18.6875V15.2429L5.85512 17.1449L7.75711 19.0469H4.3125C4.21719 19.0469 4.12578 19.009 4.05838 18.9416C3.99099 18.8742 3.95312 18.7828 3.95312 18.6875ZM19.6605 7.86224L17.25 10.2727L12.7273 5.75001L15.1378 3.3395C15.1712 3.30609 15.2108 3.27958 15.2544 3.2615C15.298 3.24341 15.3448 3.2341 15.392 3.2341C15.4393 3.2341 15.486 3.24341 15.5297 3.2615C15.5733 3.27958 15.6129 3.30609 15.6463 3.3395L19.6605 7.35462C19.7277 7.42199 19.7655 7.51327 19.7655 7.60843C19.7655 7.70359 19.7277 7.79487 19.6605 7.86224Z" fill="black"/>
</svg>
