<svg width="24" height="24" viewBox="0 0 24 24" fill="none" xmlns="http://www.w3.org/2000/svg">
<path d="M7.81702 8.808C7.81719 8.14444 7.97522 7.49044 8.27805 6.90001C8.58089 6.30959 9.01985 5.79968 9.55867 5.41241C10.0975 5.02513 10.7207 4.7716 11.3769 4.67274C12.033 4.57389 12.7033 4.63256 13.3323 4.8439C13.9613 5.05524 14.531 5.41319 14.9943 5.88819C15.4577 6.36319 15.8014 6.9416 15.997 7.57566C16.1927 8.20971 16.2347 8.88122 16.1196 9.53472C16.0045 10.1882 15.7356 10.805 15.335 11.334L15.202 11.479C15.137 11.549 14.912 11.765 14.839 11.826C14.7263 11.9211 14.6085 12.0099 14.486 12.092L12.969 13.137C12.594 13.3955 12.2875 13.7413 12.0759 14.1446C11.8642 14.5479 11.7538 14.9965 11.754 15.452" stroke="black" stroke-width="1.5" stroke-linecap="round" stroke-linejoin="round"/>
<path d="M11.754 20.125C12.2975 20.125 12.738 19.6844 12.738 19.141C12.738 18.5975 12.2975 18.157 11.754 18.157C11.2106 18.157 10.77 18.5975 10.77 19.141C10.77 19.6844 11.2106 20.125 11.754 20.125Z" fill="black"/>
</svg>
