<svg width="25" height="25" viewBox="0 0 25 25" fill="none" xmlns="http://www.w3.org/2000/svg">
<path d="M12.5 2.08124C18.2542 2.08124 22.9188 6.74582 22.9188 12.5C22.9188 18.2531 18.2542 22.9167 12.5 22.9167C6.74587 22.9167 2.08337 18.2531 2.08337 12.5C2.08233 6.74582 6.74587 2.08124 12.5 2.08124ZM12.5 3.64374C11.329 3.63104 10.1671 3.85072 9.08152 4.29006C7.99595 4.72941 7.0083 5.3797 6.17573 6.20329C5.34316 7.02688 4.6822 8.00742 4.2311 9.08815C3.78001 10.1689 3.54774 11.3284 3.54774 12.4995C3.54774 13.6706 3.78001 14.83 4.2311 15.9108C4.6822 16.9915 5.34316 17.9721 6.17573 18.7956C7.0083 19.6192 7.99595 20.2695 9.08152 20.7089C10.1671 21.1482 11.329 21.3679 12.5 21.3552C14.8321 21.3299 17.06 20.3858 18.7002 18.7277C20.3403 17.0697 21.2602 14.8317 21.2602 12.4995C21.2602 10.1673 20.3403 7.92923 18.7002 6.2712C17.06 4.61318 14.8321 3.66903 12.5 3.64374ZM12.5 14.0604C14.199 14.0604 15.7917 14.7417 16.9594 15.9302C17.0353 16.0025 17.0959 16.0893 17.1376 16.1855C17.1793 16.2817 17.2012 16.3853 17.202 16.4901C17.2027 16.5949 17.1824 16.6989 17.1422 16.7957C17.102 16.8925 17.0427 16.9802 16.9679 17.0536C16.8931 17.1271 16.8043 17.1847 16.7067 17.2231C16.6091 17.2614 16.5049 17.2798 16.4001 17.277C16.2953 17.2742 16.1921 17.2504 16.0967 17.2069C16.0013 17.1634 15.9157 17.1012 15.8448 17.0239C15.4085 16.5799 14.8881 16.2272 14.314 15.9865C13.7399 15.7458 13.1236 15.6218 12.5011 15.6219C11.8769 15.6217 11.2589 15.7461 10.6835 15.988C10.108 16.2298 9.5867 16.5842 9.15004 17.0302C9.07822 17.1035 8.99267 17.162 8.89826 17.2022C8.80385 17.2425 8.70244 17.2638 8.59981 17.2648C8.49718 17.2659 8.39535 17.2467 8.30013 17.2084C8.2049 17.1701 8.11815 17.1135 8.04483 17.0417C7.97151 16.9698 7.91305 16.8843 7.8728 16.7899C7.83254 16.6955 7.81127 16.5941 7.81021 16.4914C7.80914 16.3888 7.8283 16.287 7.86659 16.1917C7.90489 16.0965 7.96156 16.0098 8.03337 15.9364C8.61486 15.3413 9.30969 14.8686 10.0769 14.5464C10.844 14.2242 11.668 14.0589 12.5 14.0604ZM9.37504 9.11457C9.54906 9.10965 9.7223 9.13967 9.88452 9.20287C10.0467 9.26606 10.1946 9.36114 10.3195 9.48249C10.4443 9.60384 10.5435 9.74899 10.6113 9.90935C10.679 10.0697 10.7139 10.242 10.7139 10.4161C10.7139 10.5902 10.679 10.7625 10.6113 10.9229C10.5435 11.0833 10.4443 11.2284 10.3195 11.3498C10.1946 11.4711 10.0467 11.5662 9.88452 11.6294C9.7223 11.6926 9.54906 11.7226 9.37504 11.7177C9.03622 11.7081 8.71449 11.5668 8.47822 11.3237C8.24196 11.0807 8.10978 10.7551 8.10978 10.4161C8.10978 10.0772 8.24196 9.75158 8.47822 9.50853C8.71449 9.26549 9.03622 9.12416 9.37504 9.11457ZM15.625 9.11457C15.7991 9.10965 15.9723 9.13967 16.1345 9.20287C16.2967 9.26606 16.4446 9.36114 16.5695 9.48249C16.6943 9.60384 16.7935 9.74899 16.8613 9.90935C16.929 10.0697 16.9639 10.242 16.9639 10.4161C16.9639 10.5902 16.929 10.7625 16.8613 10.9229C16.7935 11.0833 16.6943 11.2284 16.5695 11.3498C16.4446 11.4711 16.2967 11.5662 16.1345 11.6294C15.9723 11.6926 15.7991 11.7226 15.625 11.7177C15.2862 11.7081 14.9645 11.5668 14.7282 11.3237C14.492 11.0807 14.3598 10.7551 14.3598 10.4161C14.3598 10.0772 14.492 9.75158 14.7282 9.50853C14.9645 9.26549 15.2862 9.12416 15.625 9.11457Z" fill="black"/>
</svg>
