<svg width="26" height="26" viewBox="0 0 26 26" fill="none" xmlns="http://www.w3.org/2000/svg">
<g clip-path="url(#clip0_93_17309)">
<path d="M3.9447 9.1C6.36595 7.38766 7.86501 5.41531 8.68564 4.095C9.50626 5.41531 11.0053 7.38563 13.4266 9.1C11.0074 10.8123 9.50626 12.7827 8.68564 14.103C7.86705 12.7847 6.36595 10.8123 3.9447 9.1ZM19.5406 16.6237C19.0328 15.9819 18.2122 15.1288 16.9975 14.3427C18.2122 13.5566 19.0308 12.7034 19.5406 12.0616C20.0485 12.7034 20.8691 13.5566 22.0817 14.3427C20.8691 15.1288 20.0505 15.9819 19.5406 16.6237ZM12.9411 22.425C12.4023 21.6342 11.7477 20.929 10.9992 20.3328C11.8889 19.6239 12.5186 18.8602 12.9411 18.2386C13.3636 18.8581 13.9933 19.6239 14.883 20.3328C14.1345 20.929 13.4799 21.6342 12.9411 22.425Z" fill="#FCC21B"/>
<path d="M9.48591 16.2642C9.50216 16.2256 11.1292 12.4333 15.4578 9.84342L16.7009 9.09998L15.4578 8.35452C11.1292 5.7667 9.50216 1.97436 9.48794 1.9378L8.69169 0.0162354L7.88732 1.93577C7.87107 1.97436 6.24404 5.7667 1.91544 8.35655L0.670288 9.09998L1.91341 9.84342C6.24201 12.4333 7.86904 16.2256 7.88529 16.2642L8.68154 18.1817L9.48591 16.2642ZM3.94466 9.09998C6.36591 7.38764 7.86498 5.4153 8.6856 4.09499C9.50623 5.4153 11.0053 7.38561 13.4265 9.09998C11.0073 10.8123 9.50623 12.7826 8.6856 14.103C7.86701 12.7847 6.36591 10.8123 3.94466 9.09998ZM23.9525 13.6622C21.2468 12.3256 20.2272 10.3858 20.219 10.3695L19.5467 9.03702L18.8642 10.3675C18.854 10.3858 17.8344 12.3256 15.1287 13.6642L13.7515 14.3447L15.1287 15.0251C17.8283 16.3597 18.85 18.2914 18.8642 18.3219L19.5345 19.6523L20.217 18.3219C20.2272 18.3036 21.2468 16.3637 23.9525 15.0251L25.3297 14.3447L23.9525 13.6622ZM19.5406 16.6237C19.0328 15.9819 18.2122 15.1287 16.9975 14.3426C18.2122 13.5565 19.0308 12.7034 19.5406 12.0615C20.0484 12.7034 20.869 13.5565 22.0817 14.3426C20.869 15.1287 20.0504 15.9819 19.5406 16.6237ZM13.6459 16.4165L12.9492 14.6819L12.2403 16.4145C12.2322 16.4328 11.4217 18.3665 9.28685 19.6869L8.24279 20.3328L9.28685 20.9767C11.4115 22.2909 12.224 24.2105 12.2403 24.249L12.937 25.9817L13.6459 24.249C13.654 24.2287 14.4625 22.297 16.5993 20.9767L17.6434 20.3328L16.5993 19.6869C14.4625 18.3665 13.652 16.4348 13.6459 16.4165ZM12.9411 22.425C12.4023 21.6342 11.7477 20.9289 10.9992 20.3328C11.8889 19.6239 12.5186 18.8601 12.9411 18.2386C13.3636 18.8581 13.9933 19.6239 14.8829 20.3328C14.1345 20.9289 13.4799 21.6342 12.9411 22.425Z" fill="#F79329"/>
</g>
<defs>
<clipPath id="clip0_93_17309">
<rect width="26" height="26" fill="white"/>
</clipPath>
</defs>
</svg>
